<?xml version="1.0" standalone="no"?>
<!DOCTYPE svg PUBLIC "-//W3C//DTD SVG 20010904//EN"
 "http://www.w3.org/TR/2001/REC-SVG-20010904/DTD/svg10.dtd">
<svg version="1.0" xmlns="http://www.w3.org/2000/svg"
 width="300.000000pt" height="300.000000pt" viewBox="0 0 300.000000 300.000000"
 preserveAspectRatio="xMidYMid meet">
<metadata>
Created by potrace 1.10, written by Peter Selinger 2001-2011
</metadata>
<g transform="translate(0.000000,300.000000) scale(0.100000,-0.100000)"
fill="#000000" stroke="none">
<path d="M1743 2473 c-62 -80 -325 -485 -349 -537 -14 -30 -28 -72 -31 -93 -4
-21 -19 -69 -36 -108 -16 -38 -35 -90 -43 -115 -15 -50 -23 -28 69 -202 22
-41 40 -94 47 -140 15 -89 7 -266 -14 -308 -28 -58 -118 -168 -144 -179 -97
-37 -212 -37 -364 -1 -46 11 -96 20 -113 20 -16 0 -59 14 -95 31 -93 45 -158
45 -227 1 -28 -18 -75 -41 -104 -52 -39 -13 -54 -24 -54 -37 0 -14 9 -19 40
-21 22 -1 74 -9 115 -16 41 -8 120 -14 175 -14 125 0 209 -14 355 -57 63 -18
133 -37 155 -40 118 -19 200 -39 290 -70 94 -32 112 -35 270 -40 162 -7 177
-5 317 23 116 23 158 36 196 61 60 38 124 61 172 61 21 0 57 9 81 19 24 11 78
26 120 35 96 20 109 25 109 42 0 8 7 14 16 14 11 0 14 5 10 16 -3 9 -6 21 -6
28 0 6 -13 19 -29 29 -25 15 -55 17 -219 14 -142 -1 -194 1 -203 11 -7 6 -21
12 -31 12 -10 0 -18 3 -19 8 0 4 -2 17 -3 30 -2 13 3 26 10 30 23 13 26 55 5
95 l-19 37 25 0 26 0 -26 20 c-14 11 -36 20 -49 20 -25 0 -23 -4 -28 105 -2
28 -7 56 -12 62 -6 7 -7 20 -4 29 7 18 -9 125 -23 159 -5 11 -13 31 -19 45 -5
14 -13 32 -16 40 -4 8 -15 29 -25 45 -11 17 -20 39 -20 51 -1 11 -10 29 -21
39 -11 10 -17 21 -15 25 3 4 -2 13 -10 20 -11 9 -11 17 -3 35 8 18 8 28 -1 39
-7 8 -10 20 -6 25 10 17 14 146 4 152 -5 3 -11 77 -13 164 -2 97 -8 161 -14
163 -6 2 -24 -4 -41 -13 -17 -8 -31 -14 -31 -12 0 2 11 18 25 37 43 58 29 93
-25 65 -35 -18 -35 -18 -14 24 13 26 14 38 5 58 l-12 26 -23 -22 c-23 -22 -42
-28 -31 -10 9 13 -3 59 -14 59 -5 0 -22 -17 -38 -37z"/>
</g>
</svg>
