<?xml version="1.0" encoding="utf-8"?>
<svg viewBox="0 0 500 500" xmlns="http://www.w3.org/2000/svg">
  <g id="Artboard_1" data-name="Artboard 1" transform="matrix(1, 0, 0, 1, 26.431462, 24.51384)"/>
  <path style="stroke: rgb(0, 0, 0);" d="M 233.156 51.566 C 247.093 37.629 272.725 36.731 282.21 55.703 C 287.44 66.163 288.823 76.047 289.894 87.027 C 295.522 144.72 290.484 161.677 287.529 219.415 C 286.8 233.652 281.028 287.796 281.028 302.157 C 281.028 308.418 279.974 315.287 283.392 318.706 C 288.079 323.392 294.749 309.459 299.941 301.566 C 307.993 289.326 316.364 279.358 326.537 262.559 C 342.042 236.955 361.254 208.644 370.863 179.817 C 378.075 158.18 386.658 136.996 396.868 116.578 C 398.58 113.154 401.891 110.432 411.052 105.94 C 417.043 103.003 432.454 100.746 439.421 107.713 C 443.665 111.957 447.379 116.447 450.059 120.715 C 457.041 131.834 455.378 130.77 454.196 144.356 C 451.868 171.119 443.944 186.342 435.875 210.55 C 432.119 221.817 424.731 230.896 418.144 241.874 C 403.503 266.275 385.903 293.73 369.09 317.524 C 353.435 339.679 343.505 349.928 321.218 374.852 C 306.32 391.513 296.22 407.708 277.482 426.271 C 268.038 435.627 257.989 448.133 244.976 457.595 C 241.057 460.445 220.449 463.357 214.835 460.55 C 202.582 454.423 184.102 448.792 184.102 432.772 C 184.102 430.356 199.384 396.045 195.922 392.583 C 187.977 384.638 175.842 369.004 167.553 358.895 C 153.165 341.348 143.595 332.136 130.319 315.75 C 116.426 298.603 108.151 290.917 98.405 275.562 C 81.646 249.159 73.072 234.353 61.17 205.231 C 51.017 180.389 31.234 144.151 54.078 121.306 C 61.275 114.109 84.448 107.646 93.085 116.578 C 111.441 135.561 118.62 161.885 130.319 183.954 C 140.719 203.572 145.233 214.836 152.778 225.916 C 165.512 244.615 170.031 252.852 186.466 273.198 C 197.972 287.442 201.956 297.554 211.288 306.886 C 212.052 307.649 223.716 322.235 224.882 321.07 C 226.857 319.094 226.064 310.457 226.064 307.476 C 226.064 293.463 218.972 220.384 218.972 196.956 C 218.972 187.923 219.563 154.414 219.563 149.675 C 219.563 136.18 218.558 122.018 220.745 108.895 C 223.367 93.163 220.229 76.239 227.246 62.204 C 229.948 56.801 229.605 49.793 236.111 49.793"/>
  <path style="stroke: rgb(0, 0, 0);" d="M 118.499 128.989 C 121.634 128.989 134.818 129.81 144.504 128.398 C 150.832 127.476 159.335 125.998 174.054 120.715 C 185.901 116.463 194.549 108.495 200.059 102.985 C 201.249 101.794 203.597 100.021 204.787 101.212 C 207.911 104.335 204.518 122.973 204.196 126.625 C 202.779 142.699 204.854 152.238 204.196 174.497 C 203.983 181.714 205.12 218.716 206.56 225.916 C 208.872 237.473 209.515 250.698 209.515 262.559 C 209.515 264.416 211.84 280.106 209.515 280.881 C 203.215 282.981 197.771 268.621 195.922 264.923 C 192.618 258.315 191.674 254.766 185.875 248.966 C 182.13 245.221 174.532 233.204 166.963 220.597 C 157 204.002 153.671 195.753 143.321 179.225 C 133.053 162.828 121.454 130.741 121.454 127.807"/>
  <path style="stroke: rgb(0, 0, 0);" d="M 305.851 99.439 C 314.453 116.643 323.147 116.544 342.494 123.079 C 364.771 130.604 369.184 125.022 372.044 127.808 C 373.075 128.812 373.215 131.921 373.818 133.127 C 376.306 138.104 368.71 155.752 366.725 159.722 C 363.89 165.394 354.004 183.77 350.768 189.273 C 342.583 203.191 343.957 210.268 334.81 219.415 C 331.357 222.869 327.666 229.515 322.99 240.1 C 317.949 251.512 312.838 254.494 307.624 264.923 C 306.703 266.765 301.186 280.944 297.576 277.335 C 293.448 273.207 298.168 254.991 301.714 226.507 C 304.817 201.584 306.442 189.907 306.442 165.042 C 306.442 144.857 304.669 139.304 304.669 118.942 C 304.669 112.637 301.923 100.03 308.806 100.03"/>
</svg>