<?xml version="1.0" encoding="utf-8"?>
<svg viewBox="0 0 500 500" xmlns="http://www.w3.org/2000/svg">
  <ellipse style="fill: rgb(255, 255, 255); stroke: rgb(0, 0, 0); fill-opacity: 0;" cx="241.429" cy="236.849" rx="183.806" ry="181.147"/>
  <path style="fill: rgb(255, 255, 255); stroke: rgb(0, 0, 0); fill-opacity: 0;" d="M 133.865 383.323 C 162.825 404.118 210.742 416.47 210.698 415.829 C 208.144 378.785 210.929 404.689 209.516 375.64 C 208.13 347.143 210.813 319.329 211.88 304.718 C 213.194 286.723 215.135 260.242 229.61 252.709 C 245.506 244.436 243.248 248.4 264.481 244.435 C 277.862 241.936 279.52 240.293 291.076 234.978 C 303.288 229.361 313.979 220.942 318.854 220.203 C 332.186 218.183 331.782 217.836 346.041 216.066 C 365.087 213.702 359.604 213.236 366.726 210.156 C 381.304 203.852 374.348 198.093 373.227 197.154 C 365.973 191.082 360.779 192.532 354.906 192.425 C 337.399 192.106 330.387 184.307 318.263 179.423 C 287.583 167.064 289.73 157.959 273.936 143.962 C 258.35 130.149 260.956 128.226 240.839 127.414 C 226.534 126.837 219.662 126.923 204.196 134.506 C 192.901 140.044 172.91 160.346 169.918 165.239 C 161.546 178.929 160.435 176.9 155.142 193.017 C 148.354 213.686 147.88 215.887 145.686 237.343 C 143.947 254.354 143.241 259.057 142.14 273.395 C 140.879 289.816 139.77 290.023 138.594 307.082 C 137.515 322.729 136.657 321.193 135.638 370.818"/>
</svg>